<?xml version="1.0" standalone="no"?>
<!DOCTYPE svg PUBLIC "-//W3C//DTD SVG 20010904//EN"
 "http://www.w3.org/TR/2001/REC-SVG-20010904/DTD/svg10.dtd">
<svg version="1.0" xmlns="http://www.w3.org/2000/svg"
 width="500.000000pt" height="500.000000pt" viewBox="0 0 500.000000 500.000000"
 preserveAspectRatio="xMidYMid meet">

<g transform="translate(0.000000,500.000000) scale(0.100000,-0.100000)"
fill="#000000" stroke="none">
<path d="M1513 4265 c-199 -43 -338 -181 -395 -392 -29 -111 -30 -335 0 -444
58 -215 187 -346 388 -396 95 -23 286 -22 379 2 199 51 326 179 382 385 14 50
18 104 18 230 0 126 -4 180 -18 230 -57 210 -188 338 -394 384 -88 19 -272 20
-360 1z m292 -281 c99 -51 141 -171 133 -373 -9 -185 -56 -274 -163 -307 -131
-39 -244 10 -294 126 -48 110 -47 330 0 440 25 58 74 107 125 126 53 19 149
14 199 -12z"/>
<path d="M2937 4264 c-235 -51 -384 -189 -444 -414 -24 -89 -24 -318 0 -414
51 -205 191 -351 383 -400 143 -36 358 -28 557 21 l107 26 0 334 0 333 -265 0
-266 0 3 -127 3 -128 108 -3 107 -3 0 -93 c0 -110 5 -106 -125 -106 -171 0
-266 93 -284 276 -9 100 2 210 29 272 26 61 100 133 156 153 67 24 224 16 322
-16 46 -14 85 -25 87 -23 7 7 95 233 95 244 0 16 -108 52 -208 70 -99 17 -278
16 -365 -2z"/>
<path d="M4170 4264 c-202 -43 -343 -186 -397 -400 -26 -105 -23 -343 5 -448
55 -200 183 -328 382 -382 87 -23 290 -24 380 0 204 52 330 181 387 396 25 91
24 348 0 440 -57 215 -196 352 -402 395 -87 18 -269 18 -355 -1z m291 -281
c100 -52 146 -175 136 -373 -9 -184 -66 -283 -177 -310 -145 -35 -264 37 -302
183 -20 80 -17 279 6 350 50 152 200 219 337 150z"/>
<path d="M130 3645 l0 -615 405 0 405 0 0 135 0 135 -235 0 -235 0 0 480 0
480 -170 0 -170 0 0 -615z"/>
<path d="M1537 1699 c-187 -153 -207 -172 -195 -187 18 -22 151 -186 155 -191
3 -5 64 42 148 114 l70 61 -4 -428 -3 -428 171 0 171 0 0 615 0 615 -152 0
-153 -1 -208 -170z"/>
<path d="M3048 1699 l-207 -171 81 -99 c45 -55 85 -102 89 -105 8 -5 108 74
177 140 l42 40 0 -432 0 -432 170 0 170 0 0 615 0 615 -157 -1 -158 0 -207
-170z"/>
<path d="M2447 1596 c-77 -28 -116 -95 -102 -175 15 -88 72 -132 174 -132 114
-1 172 53 172 156 0 66 -22 111 -68 138 -43 25 -128 31 -176 13z"/>
<path d="M2423 921 c-54 -25 -77 -68 -77 -143 -1 -88 53 -147 143 -156 71 -7
116 5 155 39 54 47 66 152 25 217 -36 58 -163 80 -246 43z"/>
</g>
</svg>
